<?xml version="1.0" encoding="utf-8"?>
<!-- Generator: Adobe Illustrator 21.0.0, SVG Export Plug-In . SVG Version: 6.00 Build 0)  -->
<svg version="1.1" id="图层_1" xmlns="http://www.w3.org/2000/svg" xmlns:xlink="http://www.w3.org/1999/xlink" x="0px" y="0px"
	 viewBox="0 0 20 22" style="enable-background:new 0 0 20 22;" xml:space="preserve">
<style type="text/css">
	.st0{fill:#484CAC;}
</style>
<path class="st0" d="M0.8,12.6C0,14.3-0.1,16,0.5,16.3c0.4,0.2,1.1-0.3,1.7-1.2c0.2,1,0.8,1.9,1.7,2.6C3,18,2.4,18.6,2.4,19.2
	c0,1,1.6,1.8,3.5,1.8c1.7,0,3.2-0.7,3.5-1.5c0.1,0,0.3,0,0.4,0c0.3,0.9,1.7,1.5,3.5,1.5c1.9,0,3.5-0.8,3.5-1.8
	c0-0.6-0.6-1.1-1.5-1.5c0.8-0.7,1.4-1.6,1.7-2.6c0.6,0.9,1.3,1.4,1.7,1.2c0.6-0.3,0.5-2-0.3-3.7c-0.6-1.4-1.4-2.4-2-2.6
	c0-0.1,0-0.2,0-0.3c0-0.5-0.1-1-0.4-1.4c0,0,0-0.1,0-0.1c0-0.2-0.1-0.5-0.2-0.7c-0.2-3.6-2.5-6.4-6.3-6.4c-3.8,0-6.1,2.8-6.3,6.4
	C3.2,7.7,3.1,7.9,3.1,8.2c0,0,0,0.1,0,0.1C2.9,8.7,2.7,9.2,2.7,9.7c0,0.1,0,0.2,0,0.3C2.1,10.2,1.3,11.2,0.8,12.6L0.8,12.6z
	 M0.8,12.6"/>
</svg>
