<?xml version="1.0" encoding="utf-8"?>
<!-- Generator: Adobe Illustrator 21.0.0, SVG Export Plug-In . SVG Version: 6.00 Build 0)  -->
<svg version="1.1" id="图层_1" xmlns="http://www.w3.org/2000/svg" xmlns:xlink="http://www.w3.org/1999/xlink" x="0px" y="0px"
	 viewBox="0 0 25 23" style="enable-background:new 0 0 25 23;" xml:space="preserve">
<style type="text/css">
	.st0{fill:#484CAC;}
</style>
<path class="st0" d="M24,11.3c0,1-0.5,1.8-1.4,2.3c0.1,0.4,0.2,0.8,0.2,1.2c0,1.3-0.5,2.5-1.4,3.6c-0.9,1.1-2.2,2-3.7,2.6
	c-1.6,0.6-3.3,1-5.2,1c-1.9,0-3.6-0.3-5.1-1c-1.6-0.6-2.8-1.5-3.7-2.6c-0.9-1.1-1.4-2.3-1.4-3.6c0-0.4,0-0.8,0.1-1.2
	c-0.4-0.2-0.8-0.5-1.1-0.9c-0.3-0.4-0.4-0.9-0.4-1.4c0-0.7,0.2-1.3,0.7-1.8C2.1,9,2.8,8.8,3.5,8.8c0.7,0,1.4,0.3,1.9,0.8
	c1.9-1.3,4.1-2,6.6-2.1l1.5-6.6c0-0.1,0.1-0.2,0.2-0.3c0.1-0.1,0.2-0.1,0.3-0.1l4.8,1c0.2-0.3,0.4-0.6,0.7-0.8
	c0.3-0.2,0.6-0.3,1-0.3c0.5,0,1,0.2,1.4,0.6c0.4,0.4,0.6,0.8,0.6,1.3c0,0.5-0.2,1-0.6,1.3c-0.4,0.4-0.9,0.6-1.4,0.6
	c-0.5,0-1-0.2-1.4-0.6c-0.4-0.3-0.6-0.8-0.6-1.3l-4.3-0.9l-1.3,6c2.6,0.1,4.8,0.8,6.7,2c0.5-0.5,1.1-0.8,1.8-0.8
	c0.7,0,1.3,0.2,1.8,0.7C23.7,10,24,10.6,24,11.3L24,11.3z M6.3,13.8c0,0.5,0.2,1,0.6,1.3c0.4,0.4,0.8,0.6,1.4,0.6
	c0.5,0,1-0.2,1.4-0.6c0.4-0.4,0.6-0.8,0.6-1.3c0-0.5-0.2-1-0.6-1.3c-0.4-0.4-0.9-0.6-1.4-0.6c-0.5,0-1,0.2-1.4,0.6
	C6.5,12.8,6.3,13.3,6.3,13.8L6.3,13.8z M16.7,18.3c0.1-0.1,0.1-0.2,0.1-0.3c0-0.1-0.1-0.2-0.1-0.3c-0.1-0.1-0.2-0.1-0.3-0.1
	c-0.1,0-0.2,0-0.3,0.1c-0.4,0.4-0.9,0.6-1.6,0.8c-0.7,0.2-1.4,0.3-2.1,0.3c-0.7,0-1.4-0.1-2.1-0.3c-0.7-0.2-1.2-0.4-1.6-0.8
	c-0.1-0.1-0.2-0.1-0.3-0.1c-0.1,0-0.2,0-0.3,0.1C8.1,17.7,8,17.8,8,18c0,0.1,0,0.2,0.1,0.3c0.4,0.4,0.9,0.7,1.5,0.9
	c0.6,0.2,1.2,0.3,1.6,0.4c0.8,0.1,1.6,0.1,2.3,0c0.4,0,0.9-0.2,1.6-0.4C15.9,18.9,16.4,18.7,16.7,18.3L16.7,18.3L16.7,18.3z
	 M16.7,15.7c0.5,0,1-0.2,1.4-0.6c0.4-0.4,0.6-0.8,0.6-1.3c0-0.5-0.2-1-0.6-1.3c-0.4-0.4-0.8-0.6-1.4-0.6c-0.5,0-1,0.2-1.4,0.6
	c-0.4,0.3-0.6,0.8-0.6,1.3c0,0.5,0.2,1,0.6,1.3C15.7,15.5,16.2,15.7,16.7,15.7L16.7,15.7z M16.7,15.7"/>
</svg>
