<?xml version="1.0" encoding="utf-8"?>
<!-- Generator: Adobe Illustrator 21.0.0, SVG Export Plug-In . SVG Version: 6.00 Build 0)  -->
<svg version="1.1" id="图层_1" xmlns="http://www.w3.org/2000/svg" xmlns:xlink="http://www.w3.org/1999/xlink" x="0px" y="0px"
	 viewBox="0 0 22 19" style="enable-background:new 0 0 22 19;" xml:space="preserve">
<style type="text/css">
	.st0{fill:#484CAC;}
</style>
<path class="st0" d="M20.9,4.2C21,4.4,21,4.7,21,5v8.1c0,1.9-1.5,3.4-3.4,3.4H4c-1.9,0-3.4-1.5-3.4-3.4V5c0-0.3,0-0.6,0.1-0.9L9,9.9
	c1.2,0.9,2.4,0.8,3.6,0L20.9,4.2z M17.6,1.6H4C2.7,1.6,1.6,2.3,1,3.3l8.1,5.6c1,0.8,2.1,0.8,3.2,0l8.1-5.6
	C19.9,2.3,18.8,1.6,17.6,1.6L17.6,1.6z M17.6,1.6"/>
</svg>
