<svg xmlns="http://www.w3.org/2000/svg" width="24" height="19" viewBox="0 0 24 19">
  <metadata><?xpacket begin="﻿" id="W5M0MpCehiHzreSzNTczkc9d"?>
<x:xmpmeta xmlns:x="adobe:ns:meta/" x:xmptk="Adobe XMP Core 5.6-c138 79.159824, 2016/09/14-01:09:01        ">
   <rdf:RDF xmlns:rdf="http://www.w3.org/1999/02/22-rdf-syntax-ns#">
      <rdf:Description rdf:about=""/>
   </rdf:RDF>
</x:xmpmeta>
                                                                                                    
                                                                                                    
                                                                                                    
                                                                                                    
                                                                                                    
                                                                                                    
                                                                                                    
                                                                                                    
                                                                                                    
                                                                                                    
                                                                                                    
                                                                                                    
                                                                                                    
                                                                                                    
                                                                                                    
                                                                                                    
                                                                                                    
                                                                                                    
                                                                                                    
                                                                                                    
                           
<?xpacket end="w"?></metadata>
<defs>
    <style>
      .cls-1 {
        fill: #494dad;
        fill-rule: evenodd;
      }
    </style>
  </defs>
  <path id="ecology_popup_logo_7" class="cls-1" d="M5409.24,1269.11a8.454,8.454,0,0,0-3.24.11,0.086,0.086,0,0,0-.06.03l-0.02.05-0.03.03a0.857,0.857,0,0,0-.5.34,0.939,0.939,0,0,0-.19.55,0.939,0.939,0,0,0,.94.95h0.08a0.491,0.491,0,0,0,.12-0.03,1.3,1.3,0,0,1,.21-0.04c0.07-.01.15-0.03,0.23-0.05s0.16-.06.22-0.09a1.337,1.337,0,0,1,.37-0.04c0.18,0,.41.02,0.67,0.04a4.12,4.12,0,0,1,.88.21,7.819,7.819,0,0,1,.96.4,4.72,4.72,0,0,1,.96.68,4.794,4.794,0,0,1,.84,1,4.3,4.3,0,0,1,.27,3.09,0.109,0.109,0,0,1-.01.05,1.106,1.106,0,0,0-.04.13c-0.02.08-.04,0.14-0.06,0.21s-0.03.14-.05,0.24a1.3,1.3,0,0,0-.03.26,0.59,0.59,0,0,0,.14.4,0.669,0.669,0,0,0,.34.23,1.426,1.426,0,0,0,.48.07,0.9,0.9,0,0,0,.91-0.92,7.935,7.935,0,0,0,.37-2.01,6,6,0,0,0-.14-1.7,5.737,5.737,0,0,0-.53-1.36,4.611,4.611,0,0,0-.83-1.08,7.092,7.092,0,0,0-1.04-.82,7.936,7.936,0,0,0-1.11-.58,8.418,8.418,0,0,0-1.11-.35h0Zm0.46,7.63a0.681,0.681,0,0,0,.31-0.08,0.673,0.673,0,0,0,.21-0.2,0.541,0.541,0,0,0,.11-0.26,0.114,0.114,0,0,0,.03-0.08q0.33-3.09-2.19-3.52a4.035,4.035,0,0,0-1.38-.03,0.558,0.558,0,0,0-.33.1,0.881,0.881,0,0,0-.23.24,0.509,0.509,0,0,0-.09.31,0.6,0.6,0,0,0,.19.46,0.619,0.619,0,0,0,.46.19q2.145-.48,2.31,1.35a2.091,2.091,0,0,1-.06.87,0.629,0.629,0,0,0,.2.46,0.6,0.6,0,0,0,.46.19h0Zm-9.74,5.65a0.618,0.618,0,0,1-.4.13,0.314,0.314,0,0,1-.28-0.18l-0.06-.11a0.2,0.2,0,0,1-.03-0.11v-0.1a0.29,0.29,0,0,1,.03-0.14l0.06-.11a0.155,0.155,0,0,1,.08-0.08l0.08-.11a0.619,0.619,0,0,1,.43-0.13,0.336,0.336,0,0,1,.28.22,0.3,0.3,0,0,1,.07.24,0.652,0.652,0,0,1-.08.26,1.806,1.806,0,0,1-.18.23v-0.01Zm-2.33,1.95a1.173,1.173,0,0,1-.32.02,1.071,1.071,0,0,1-.27-0.06c-0.08-.03-0.17-0.06-0.25-0.09a0.618,0.618,0,0,1-.2-0.15,2.05,2.05,0,0,1-.15-0.19,0.57,0.57,0,0,1-.11-0.22,0.7,0.7,0,0,1-.05-0.25,1.178,1.178,0,0,1,.17-0.59,1.47,1.47,0,0,1,.45-0.48,1.164,1.164,0,0,1,.65-0.23,1.546,1.546,0,0,1,.48.01,1.182,1.182,0,0,1,.4.14,1.207,1.207,0,0,1,.28.21,0.594,0.594,0,0,1,.18.29,0.951,0.951,0,0,1,.06.35,0.98,0.98,0,0,1-.18.56,1.55,1.55,0,0,1-1.14.68h0Zm0.99-5.11a4.482,4.482,0,0,0-1.43.36,3.332,3.332,0,0,0-.99.65,4.022,4.022,0,0,0-.6.79,3.021,3.021,0,0,0-.35.82,5.79,5.79,0,0,0-.12.75c-0.02.22-.03,0.4-0.03,0.52l0.03,0.22v0.11a1.728,1.728,0,0,0,.06.32,1.589,1.589,0,0,0,.15.45,2.028,2.028,0,0,0,.31.45,2.059,2.059,0,0,0,.52.4,5.167,5.167,0,0,0,3.38.53,4.245,4.245,0,0,0,2.52-1.56,2.308,2.308,0,0,0,.51-1.13,3.177,3.177,0,0,0-.05-1.37,3.534,3.534,0,0,0-.62-1.26,2.8,2.8,0,0,0-1.3-.88,4.427,4.427,0,0,0-1.99-.17h0Zm0.79,7.49a8.716,8.716,0,0,1-5.03-1.13,3.726,3.726,0,0,1-2.07-3.22,3.992,3.992,0,0,1,2.05-3.32,9.716,9.716,0,0,1,5.05-1.53,9.57,9.57,0,0,1,5.05.98,3.373,3.373,0,0,1,2.06,3.03,4.381,4.381,0,0,1-2.1,3.5,8.881,8.881,0,0,1-5.01,1.69h0Zm8.37-8.41a0.9,0.9,0,0,1-.53-0.24,0.248,0.248,0,0,1-.04-0.3l0.08-.14a0.123,0.123,0,0,0,.05-0.08,1.7,1.7,0,0,0,.11-0.23,1.657,1.657,0,0,0,.13-0.35,3.513,3.513,0,0,0,.07-0.43,1.972,1.972,0,0,0-.02-0.49,2.385,2.385,0,0,0-.16-0.5,1.836,1.836,0,0,0-.35-0.49,1.891,1.891,0,0,0-1-.49,3.9,3.9,0,0,0-1.23-.01c-0.41.06-.8,0.15-1.17,0.24a8.82,8.82,0,0,0-.9.29l-0.36.16a3.171,3.171,0,0,1-.45.11,0.624,0.624,0,0,1-.28-0.01,0.988,0.988,0,0,1-.15-0.09,0.193,0.193,0,0,1-.04-0.19c0.01-.09.02-0.18,0.03-0.25s0.03-.19.06-0.34,0.07-.28.09-0.37a5.488,5.488,0,0,0-.04-0.6,3.136,3.136,0,0,0-.18-0.64,1.471,1.471,0,0,0-.4-0.57,2.052,2.052,0,0,0-.66-0.35,2.5,2.5,0,0,0-1.03-.08,5.944,5.944,0,0,0-1.43.32,8.956,8.956,0,0,0-1.94.96,12.342,12.342,0,0,0-1.72,1.33c-0.48.46-.93,0.91-1.33,1.34s-0.71.78-.93,1.05l-0.31.44a8.947,8.947,0,0,0-1.34,2.32,4.965,4.965,0,0,0-.41,1.76v0.57a5.679,5.679,0,0,0,.81,2.33,5.832,5.832,0,0,0,1.53,1.66,9.4,9.4,0,0,0,2.1,1.08,13.373,13.373,0,0,0,2.32.65,20.959,20.959,0,0,0,2.35.29,14.86,14.86,0,0,0,4.21-.31,12.981,12.981,0,0,0,4.06-1.64,6.7,6.7,0,0,0,2.65-2.79,4.248,4.248,0,0,0,.48-1.78,2.557,2.557,0,0,0-.29-1.37,3.452,3.452,0,0,0-.78-0.93,4.129,4.129,0,0,0-.9-0.6,2.841,2.841,0,0,0-.76-0.24h0Zm0,0" transform="translate(-5390 -1269)"/>
</svg>
