<?xml version="1.0" encoding="utf-8"?>
<!-- Generator: Adobe Illustrator 21.0.0, SVG Export Plug-In . SVG Version: 6.00 Build 0)  -->
<svg version="1.1" id="图层_1" xmlns="http://www.w3.org/2000/svg" xmlns:xlink="http://www.w3.org/1999/xlink" x="0px" y="0px"
	 viewBox="0 0 27 22" style="enable-background:new 0 0 27 22;" xml:space="preserve">
<style type="text/css">
	.st0{fill:#484CAC;}
</style>
<path class="st0" d="M18,7.5c0.3,0,0.6,0,0.8,0.1C18.1,4,14.3,1.4,10,1.4c-4.8,0-8.8,3.3-8.8,7.4c0,2.4,1.3,4.4,3.5,5.9l-0.9,2.6
	L7,15.8c1.1,0.2,2,0.4,3.1,0.4c0.3,0,0.5,0,0.8,0c-0.2-0.6-0.3-1.2-0.3-1.8C10.6,10.6,13.8,7.5,18,7.5L18,7.5z M13.3,5.1
	c0.7,0,1.1,0.4,1.1,1.1c0,0.7-0.4,1.1-1.1,1.1c-0.7,0-1.3-0.4-1.3-1.1C12,5.5,12.6,5.1,13.3,5.1L13.3,5.1z M7.2,7.3
	c-0.7,0-1.3-0.4-1.3-1.1c0-0.7,0.7-1.1,1.3-1.1s1.1,0.4,1.1,1.1C8.3,6.8,7.8,7.3,7.2,7.3L7.2,7.3z M26,14.3c0-3.5-3.5-6.4-7.4-6.4
	c-4.2,0-7.4,2.9-7.4,6.4c0,3.5,3.3,6.4,7.4,6.4c0.9,0,1.8-0.2,2.6-0.4l2.4,1.3l-0.7-2.2C24.7,18,26,16.3,26,14.3L26,14.3z
	 M16.1,13.2c-0.4,0-0.9-0.4-0.9-0.9c0-0.4,0.4-0.9,0.9-0.9c0.7,0,1.1,0.4,1.1,0.9C17.2,12.8,16.8,13.2,16.1,13.2L16.1,13.2z
	 M21,13.2c-0.4,0-0.9-0.4-0.9-0.9c0-0.4,0.4-0.9,0.9-0.9c0.7,0,1.1,0.4,1.1,0.9C22.1,12.8,21.6,13.2,21,13.2L21,13.2z M21,13.2"/>
</svg>
