<?xml version="1.0" encoding="utf-8"?>
<!-- Generator: Adobe Illustrator 21.0.0, SVG Export Plug-In . SVG Version: 6.00 Build 0)  -->
<svg version="1.1" id="图层_1" xmlns="http://www.w3.org/2000/svg" xmlns:xlink="http://www.w3.org/1999/xlink" x="0px" y="0px"
	 viewBox="0 0 25 22" style="enable-background:new 0 0 25 22;" xml:space="preserve">
<style type="text/css">
	.st0{fill:#484CAC;}
</style>
<path class="st0" d="M25.4,2.3c0,0-2.2,1.2-3,1.2c-1.9-3-9.3-1.7-8,4.1C7.9,7.7,4.5,2.9,4.5,2.9S2.3,6.3,5.9,9.2
	c-0.7,0.1-2-0.4-2-0.4s-0.5,3,3.6,4.5c-0.4,0.5-2.1,0.2-2.1,0.2s0.5,2.6,4.2,3.3c-2.6,2.4-7.1,1.7-6.8,1.9
	c3.8,3.5,20.5,4.2,20.7-11.8C24.5,6.6,26,4.3,26,4.3S23.6,5,23.5,4.9C25.3,3.8,25.4,2.3,25.4,2.3"/>
</svg>
