<?xml version="1.0" encoding="UTF-8"?>
<svg width="151px" height="42px" viewBox="0 0 151 42" version="1.1" xmlns="http://www.w3.org/2000/svg" xmlns:xlink="http://www.w3.org/1999/xlink">
    <title>编组 5</title>
    <g id="-" stroke="none" stroke-width="1" fill="none" fill-rule="evenodd">
        <g id="区块" transform="translate(-390.000000, -20.000000)" fill="#40506C" fill-rule="nonzero">
            <g id="编组-5" transform="translate(390.000000, 20.000000)">
                <path d="M28.8,17.7 L28.8,20.3 L36,20.3 C35.9,19.6 35.9,18.4 35.6,17.7 L28.8,17.7 Z" id="路径"></path>
                <path d="M36,22 L27.5,22 L27.5,24.6 L35.6,24.6 C35.9,23.8 35.9,22.7 36,22 Z" id="路径"></path>
                <path d="M5.8,24.5 L13.9,24.5 L13.9,21.9 L5.4,21.9 C5.5,22.7 5.5,23.8 5.8,24.5 Z" id="路径"></path>
                <path d="M5.8,17.7 C5.7,18.4 5.5,19.5 5.4,20.3 L12.6,20.3 L12.6,17.7 L5.8,17.7 Z" id="路径"></path>
                <path d="M20.6,20.7 C20.2,22.2 19.7,23.7 19.3,25.2 C18.9,26.7 18.4,28.2 17.9,29.7 L14.4,29.7 C14,28.8 13.6,27.9 13.2,26.7 C12.8,25.6 12.3,24.3 11.9,22.9 C11.5,21.6 11,20.1 10.5,18.5 C10,16.9 9.6,15.5 9.2,13.8 L13.9,13.8 C14,14.5 14.3,15.3 14.4,16.1 C14.6,17 14.8,17.8 15,18.7 C15.2,19.6 15.4,20.5 15.6,21.4 C15.8,22.3 16.1,23.2 16.3,24 C16.6,23.1 16.8,22.2 17.1,21.3 C17.4,20.4 17.6,19.5 17.8,18.6 C18,17.7 18.2,16.8 18.4,16 C18.6,15.1 18.8,14.4 19,13.7 L22.3,13.7 C22.4,14.4 22.7,15.2 22.9,16 C23.1,16.9 23.3,17.7 23.5,18.6 C23.7,19.5 23.9,20.4 24.2,21.3 C24.4,22.2 24.7,23.1 25,24 C25.2,23.1 25.5,22.3 25.7,21.4 C25.9,20.5 26.2,19.6 26.4,18.7 C26.6,17.8 26.8,16.9 27,16.1 C27.2,15.2 27.4,14.5 27.5,13.8 L32.2,13.8 C31.8,15.4 31.3,16.9 30.9,18.5 C30.4,20.1 30,21.5 29.5,22.9 C29.1,24.2 28.6,25.5 28.2,26.7 C27.8,27.8 27.4,28.9 27,29.7 L23.5,29.7 C23,28.2 22.5,26.7 22,25.2 C21.5,23.7 21.1,22.3 20.6,20.7 Z" id="路径"></path>
                <path d="M21,42 C9.4,42 0,32.6 0,21 C0,9.4 9.4,0 21,0 C32.6,0 42,9.4 42,21 C42,32.6 32.6,42 21,42 Z M21,3 C11.1,3 3,11.1 3,21 C3,30.9 11.1,39 21,39 C30.9,39 39,30.9 39,21 C39,11.1 30.9,3 21,3 Z" id="形状"></path>
                <path d="M49.9,14.6 L53,14.6 L54.2,22.2 C54.4,23.8 54.7,25.5 54.9,27.1 L55,27.1 C55.3,25.4 55.6,23.8 56,22.2 L57.8,14.6 L60.5,14.6 L62.3,22.2 C62.6,23.8 62.9,25.5 63.3,27.1 L63.4,27.1 C63.6,25.4 63.9,23.8 64.1,22.2 L65.3,14.6 L68.2,14.6 L65.3,30.1 L61.5,30.1 L59.8,22.5 C59.5,21.3 59.3,20.1 59.1,18.9 L59,18.9 C58.8,20.1 58.6,21.3 58.3,22.5 L56.6,30.1 L52.8,30.1 L49.9,14.6 Z" id="路径"></path>
                <path d="M70.3,13.5 L73.4,13.5 L73.4,17.7 L73.3,19.9 C74.2,19 75.4,18.2 77,18.2 C79.5,18.2 80.6,20 80.6,22.9 L80.6,30.2 L77.5,30.2 L77.5,23.3 C77.5,21.5 77,20.9 75.9,20.9 C74.9,20.9 74.3,21.4 73.5,22.2 L73.5,30.2 L70.4,30.2 L70.4,13.5 L70.3,13.5 Z" id="路径"></path>
                <path d="M83.4,14.9 C83.4,13.9 84.1,13.2 85.2,13.2 C86.2,13.2 87,13.9 87,14.9 C87,15.9 86.3,16.6 85.2,16.6 C84.1,16.5 83.4,15.9 83.4,14.9 Z M83.6,18.4 L86.7,18.4 L86.7,30.1 L83.6,30.1 L83.6,18.4 Z" id="形状"></path>
                <path d="M90.4,26 L90.4,20.8 L88.8,20.8 L88.8,18.5 L90.6,18.4 L91,15.2 L93.5,15.2 L93.5,18.4 L96.4,18.4 L96.4,20.8 L93.5,20.8 L93.5,26 C93.5,27.3 94,28 95.1,28 C95.5,28 95.9,27.9 96.2,27.8 L96.7,30 C96.1,30.2 95.3,30.4 94.2,30.4 C91.5,30.4 90.4,28.6 90.4,26 Z" id="路径"></path>
                <path d="M97.6,24.3 C97.6,20.5 100.3,18.2 103,18.2 C106.2,18.2 107.9,20.6 107.9,23.8 C107.9,24.4 107.8,24.9 107.8,25.2 L100.6,25.2 C100.9,27.1 102.1,28.1 103.8,28.1 C104.8,28.1 105.6,27.8 106.4,27.3 L107.4,29.2 C106.3,30 104.8,30.5 103.3,30.5 C100.2,30.4 97.6,28.1 97.6,24.3 Z M105.3,23.1 C105.3,21.5 104.6,20.5 103.1,20.5 C101.9,20.5 100.8,21.4 100.6,23.1 L105.3,23.1 Z" id="形状"></path>
                <path d="M109.7,24.3 C109.7,20.4 112.5,18.2 115.7,18.2 C117.1,18.2 118.2,18.8 119.1,19.5 L117.6,21.5 C117,21 116.5,20.7 115.8,20.7 C114,20.7 112.8,22.1 112.8,24.3 C112.8,26.5 114,27.9 115.7,27.9 C116.5,27.9 117.3,27.5 118,27 L119.2,29 C118.1,30 116.7,30.4 115.4,30.4 C112.2,30.4 109.7,28.2 109.7,24.3 Z" id="路径"></path>
                <path d="M120.1,24.3 C120.1,20.4 122.8,18.2 125.7,18.2 C128.6,18.2 131.3,20.5 131.3,24.3 C131.3,28.1 128.6,30.4 125.7,30.4 C122.8,30.4 120.1,28.2 120.1,24.3 Z M128.2,24.3 C128.2,22.1 127.3,20.7 125.7,20.7 C124.1,20.7 123.2,22.1 123.2,24.3 C123.2,26.5 124.1,27.9 125.7,27.9 C127.3,27.9 128.2,26.5 128.2,24.3 Z" id="形状"></path>
                <path d="M133.7,14.9 C133.7,13.9 134.4,13.2 135.5,13.2 C136.5,13.2 137.3,13.9 137.3,14.9 C137.3,15.9 136.6,16.6 135.5,16.6 C134.4,16.5 133.7,15.9 133.7,14.9 Z M133.9,18.4 L137,18.4 L137,30.1 L133.9,30.1 L133.9,18.4 Z" id="形状"></path>
                <path d="M140.3,18.4 L142.8,18.4 L143,20 L143.1,20 C144.1,19 145.3,18.2 146.9,18.2 C149.4,18.2 150.5,20 150.5,22.9 L150.5,30.2 L147.4,30.2 L147.4,23.3 C147.4,21.5 146.9,20.9 145.8,20.9 C144.8,20.9 144.2,21.4 143.4,22.2 L143.4,30.2 L140.3,30.2 L140.3,18.4 Z" id="路径"></path>
            </g>
        </g>
    </g>
</svg>