<?xml version="1.0" standalone="no"?><!DOCTYPE svg PUBLIC "-//W3C//DTD SVG 1.1//EN" "http://www.w3.org/Graphics/SVG/1.1/DTD/svg11.dtd"><svg t="1606901054619" class="icon" viewBox="0 0 1172 1024" version="1.1" xmlns="http://www.w3.org/2000/svg" p-id="3214" xmlns:xlink="http://www.w3.org/1999/xlink" width="146.5" height="128"><defs><style type="text/css"></style></defs><path d="M951.564794 829.130455h-182.690199a48.717386 48.717386 0 0 1 0-97.434773h182.690199a85.255426 85.255426 0 0 0 15.102389 0A122.767814 122.767814 0 0 0 1073.35826 609.415042a121.306292 121.306292 0 0 0-53.589125-100.84499 100.84499 100.84499 0 0 1-43.845648-85.7426 311.304099 311.304099 0 0 0-217.766717-309.842577c-171.972374-52.127603-363.918876 37.512387-418.482349 194.869546A48.717386 48.717386 0 0 1 293.880078 341.956591a194.869545 194.869545 0 0 0-194.869545 214.3565A202.177153 202.177153 0 0 0 304.597903 731.695682h273.304537a48.717386 48.717386 0 0 1 0 97.434773H304.597903A300.586274 300.586274 0 0 1 1.57576 565.082221 292.304318 292.304318 0 0 1 259.777908 244.521818 444.302564 444.302564 0 0 1 786.412854 19.447493 407.764524 407.764524 0 0 1 1073.35826 422.827452v4.871739a218.741065 218.741065 0 0 1-90.127165 398.50822 173.433895 173.433895 0 0 1-31.666301 2.923044z" p-id="3215" fill="#e6e6e6"></path><path d="M586.184396 1024a48.717386 48.717386 0 0 1-48.717386-48.717386V439.391364a48.717386 48.717386 0 0 1 97.434772 0v535.89125a48.717386 48.717386 0 0 1-48.717386 48.717386z" p-id="3216" fill="#e6e6e6"></path><path d="M781.053941 634.260909a48.717386 48.717386 0 0 1-37.999561-18.025433L586.184396 419.417235l-156.869984 194.869546a48.717386 48.717386 0 1 1-75.999123-60.896733l156.869984-194.869546A97.434773 97.434773 0 0 1 586.184396 321.982463a97.434773 97.434773 0 0 1 75.999123 36.538039l156.869984 194.869546A48.717386 48.717386 0 0 1 781.053941 634.260909z" p-id="3217" fill="#e6e6e6"></path></svg>