<?xml version="1.0" standalone="no"?><!DOCTYPE svg PUBLIC "-//W3C//DTD SVG 1.1//EN" "http://www.w3.org/Graphics/SVG/1.1/DTD/svg11.dtd"><svg t="1606899816026" class="icon" viewBox="0 0 1024 1024" version="1.1" xmlns="http://www.w3.org/2000/svg" p-id="6600" xmlns:xlink="http://www.w3.org/1999/xlink" width="128" height="128"><defs><style type="text/css"></style></defs><path d="M908.37586 1024H115.62414C52.101672 1024 0.422569 969.62559 0.422569 902.733987V121.254592C0.422569 54.397252 52.101672 0 115.62414 0H908.37586c63.522468 0 115.20157 54.397252 115.201571 121.254592v781.479395c0 66.891603-51.679102 121.266013-115.201571 121.266013z m-792.75172-989.040943c-45.226353 0-82.024158 38.72792-82.024158 86.329798v781.445132c0 47.601878 36.797805 86.341219 82.024158 86.341218H908.37586c45.226353 0 82.024158-38.73934 82.024158-86.341218V121.254592c0-47.601878-36.797805-86.329798-82.024158-86.329797z" fill="#e6e6e6" p-id="6601"></path><path d="M222.591316 337.164743h73.035991v387.096463h-73.035991zM389.666142 165.533019h73.035992v566.95116h-73.035992zM559.48196 329.866854h73.035991v402.617325h-73.035991zM737.50933 502.412242h73.035991v230.071937h-73.035991zM174.201403 784.517326H858.923813v73.949655H174.201403z" fill="#e6e6e6" p-id="6602"></path></svg>