<?xml version="1.0" standalone="no"?><!DOCTYPE svg PUBLIC "-//W3C//DTD SVG 1.1//EN" "http://www.w3.org/Graphics/SVG/1.1/DTD/svg11.dtd"><svg t="1606899042092" class="icon" viewBox="0 0 1024 1024" version="1.1" xmlns="http://www.w3.org/2000/svg" p-id="5751" xmlns:xlink="http://www.w3.org/1999/xlink" width="128" height="128"><defs><style type="text/css"></style></defs><path d="M433.536 392.064c102.4 0 208.256-22.528 272-65.152v21.248a29.568 29.568 0 0 0 59.136 0v-114.048c0-102.4-170.624-158.08-331.136-158.08S102.4 131.456 102.4 234.112v465.792C102.4 796.032 251.904 850.56 402.56 857.6a29.44 29.44 0 1 0 2.56-58.88c-151.808-6.016-243.2-59.52-243.2-98.432V559.872c57.472 38.4 149.248 60.544 241.408 64a29.44 29.44 0 1 0 2.304-58.88c-151.808-6.016-243.2-59.52-243.2-98.432v-140.8c62.72 43.904 168.96 66.304 271.104 66.304z m0-256.896c168.576 0 272 57.6 272 98.944S601.6 332.8 433.536 332.8s-272.128-57.6-272.128-98.944 103.552-98.688 272.128-98.688z m264.576 289.28c-146.56 0-223.232 56.448-223.232 112.128V835.84c0 55.68 76.8 112.128 223.232 112.128S920.32 892.416 921.6 837.12V536.576c0-55.808-76.8-112.128-223.488-112.128z m0 59.008c108.416 0 164.352 37.12 164.352 53.12S806.4 589.568 698.112 589.568s-164.224-37.12-164.224-52.992 55.936-53.12 164.224-53.12z m0 405.376c-108.288 0-164.224-37.12-164.224-52.992v-71.424c37.504 20.352 92.544 33.792 164.224 33.792s126.848-12.8 164.352-33.792v71.424c0.128 15.872-56.064 52.992-164.352 52.992z m0-149.632c-108.288 0-164.224-37.12-164.224-53.12V614.4c37.504 20.352 92.544 33.92 164.224 33.92s126.848-13.312 164.352-33.92v71.68c0.128 16-56.064 53.248-164.352 53.12z" p-id="5752" fill="#e6e6e6"></path></svg>