<?xml version="1.0" standalone="no"?><!DOCTYPE svg PUBLIC "-//W3C//DTD SVG 1.1//EN" "http://www.w3.org/Graphics/SVG/1.1/DTD/svg11.dtd"><svg t="1606898932390" class="icon" viewBox="0 0 1165 1024" version="1.1" xmlns="http://www.w3.org/2000/svg" p-id="3232" xmlns:xlink="http://www.w3.org/1999/xlink" width="145.625" height="128"><defs><style type="text/css"></style></defs><path d="M288.932782 5.214161a32.050023 32.050023 0 0 1 30.225655-1.177012l2.02446 1.071081 274.008275 158.237425a32.050023 32.050023 0 0 1 15.936736 25.482299l0.082391 2.283402v319.028966c0 10.19292-4.837517 19.714943-12.947127 25.741241l-1.800827 1.235862-151.304828 97.138759a32.050023 32.050023 0 0 1-36.369655-52.741885l1.730207-1.200552 136.568644-87.687356V209.602207L305.269701 69.949793 67.360368 209.472736v283.412597l132.766896 87.652046a32.061793 32.061793 0 0 1 10.19292 42.607816l-1.106391 1.800828a32.061793 32.061793 0 0 1-42.607816 10.19292l-1.800828-1.106391L17.655172 536.893793a32.050023 32.050023 0 0 1-14.324229-24.59954l-0.070621-2.153931V191.111356c0-10.616644 5.249471-20.49177 13.924046-26.435678l1.906758-1.212322L288.932782 5.214161z" p-id="3233" fill="#e6e6e6"></path><path d="M832.770943 5.214161a32.050023 32.050023 0 0 1 30.225655-1.177012l2.024459 1.071081 274.008276 158.237425a32.050023 32.050023 0 0 1 15.936736 25.482299l0.082391 2.283402v319.028966c0 10.19292-4.837517 19.714943-12.947127 25.741241l-1.789057 1.235862-151.316598 97.138759a32.050023 32.050023 0 0 1-36.369655-52.741885l1.730207-1.200552 136.568644-87.687356V209.602207L849.107862 69.949793 595.367724 218.759356a32.061793 32.061793 0 0 1-42.749057-9.651494l-1.118161-1.789057a32.061793 32.061793 0 0 1 9.651494-42.725518l1.777287-1.129931L832.770943 5.214161zM552.395034 492.485149a32.061793 32.061793 0 0 1 42.607817-10.204689l1.812597 1.106391 147.149977 97.150528a32.050023 32.050023 0 0 1-33.521287 54.613334l-1.800828-1.118161-147.149977-97.138759a32.050023 32.050023 0 0 1-9.098299-44.408644z" p-id="3234" fill="#e6e6e6"></path><path d="M677.170023 396.429241a32.061793 32.061793 0 0 1 42.631356-10.157609l1.789058 1.106391 147.161747 97.30354a32.050023 32.050023 0 0 1 14.30069 24.59954l0.07062 2.142161v319.028966c0 10.616644-5.249471 20.48-13.924046 26.435678l-1.918528 1.212322L597.451034 1016.337655a32.050023 32.050023 0 0 1-30.213885 1.177012l-2.024459-1.059311-274.008276-158.249195a32.050023 32.050023 0 0 1-15.936736-25.482299l-0.082391-2.271632V511.411494c0-10.19292 4.837517-19.726713 12.947127-25.741241l1.789057-1.235862 151.316598-97.150529a32.050023 32.050023 0 0 1 36.369655 52.753655l-1.730207 1.200552-136.592184 87.675586v283.012414l241.828782 139.664184 237.909333-139.522943v-283.424367l-132.778666-87.805058a32.061793 32.061793 0 0 1-10.15761-42.619586l1.094621-1.800828z" p-id="3235" fill="#e6e6e6"></path></svg>