<?xml version="1.0" standalone="no"?><!DOCTYPE svg PUBLIC "-//W3C//DTD SVG 1.1//EN" "http://www.w3.org/Graphics/SVG/1.1/DTD/svg11.dtd"><svg t="1605515712162" class="icon" viewBox="0 0 1024 1024" version="1.1" xmlns="http://www.w3.org/2000/svg" p-id="6703" xmlns:xlink="http://www.w3.org/1999/xlink" width="48" height="48"><defs><style type="text/css"></style></defs><path d="M465.651 558.349L419.303 512 280.257 651.046 419.303 790.09l46.348-46.348-92.697-92.697z m92.698 185.394l46.348 46.348 139.046-139.045L604.697 512l-46.348 46.349 92.697 92.697z m237.119-458.11l-103.473-103.45c-22.526-22.525-67.044-40.972-98.908-40.972H245.473c-31.865 0-57.936 26.071-57.936 57.936v625.706c0 31.865 26.07 57.936 57.936 57.936H778.48c31.865 0 57.936-26.071 57.936-57.936V384.54c0-31.864-18.447-76.382-40.972-98.907z m-32.769 32.769c2.272 2.271 4.52 5.052 6.721 8.204H651.046V208.23c3.151 2.202 5.932 4.45 8.203 6.721l103.474 103.45z m27.392 506.45c0 6.281-5.306 11.588-11.587 11.588H245.496c-6.28 0-11.587-5.307-11.587-11.587V199.147c0-6.28 5.306-11.587 11.587-11.587H593.11c3.5 0 7.416 0.44 11.587 1.228v184.166h184.166c0.788 4.172 1.228 8.088 1.228 11.587v440.312z" p-id="6704" fill="#e6e6e6"></path></svg>