<?xml version="1.0" standalone="no"?><!DOCTYPE svg PUBLIC "-//W3C//DTD SVG 1.1//EN" "http://www.w3.org/Graphics/SVG/1.1/DTD/svg11.dtd"><svg t="1605515564187" class="icon" viewBox="0 0 1024 1024" version="1.1" xmlns="http://www.w3.org/2000/svg" p-id="5866" xmlns:xlink="http://www.w3.org/1999/xlink" width="48" height="48"><defs><style type="text/css"></style></defs><path d="M273.067 798.72H157.013c-6.826 0-13.653-6.827-13.653-13.653V571.164c0-6.826 6.827-13.653 13.653-13.653h116.054c6.826 0 13.653 6.827 13.653 13.653v213.903c0 6.826-4.551 13.653-13.653 13.653z m195.697 0H350.436c-6.827 0-13.654-6.827-13.654-13.653V288.996c0-6.827 6.827-13.654 13.654-13.654h118.328c6.827 0 13.654 6.827 13.654 13.654v496.07c0 6.827-6.827 13.654-13.654 13.654z m195.698 0H546.133c-6.826 0-13.653-6.827-13.653-13.653V427.804c0-6.826 6.827-13.653 13.653-13.653h118.33c6.826 0 13.653 6.827 13.653 13.653v357.263c0 6.826-6.827 13.653-13.654 13.653z m195.698 0H741.831c-6.827 0-13.653-6.827-13.653-13.653v-634.88c0-6.827 6.826-13.654 13.653-13.654H860.16c6.827 0 13.653 6.827 13.653 13.654v634.88c0 6.826-6.826 13.653-13.653 13.653z m20.48 100.124H134.258c-6.827 0-13.654-6.826-13.654-13.653v-27.307c0-6.826 6.827-13.653 13.654-13.653H880.64c6.827 0 13.653 6.827 13.653 13.653v29.583c0 6.826-4.55 11.377-13.653 11.377z m0 0" p-id="5867" fill="#e6e6e6"></path></svg>